<?xml version="1.0" encoding="UTF-8"?>
<svg width="300" height="300" viewBox="0 0 300 300" fill="none" xmlns="http://www.w3.org/2000/svg">
  <defs>
    <linearGradient id="bg" x1="32" y1="28" x2="268" y2="272" gradientUnits="userSpaceOnUse">
      <stop stop-color="#FFF7E8"/>
      <stop offset="0.5" stop-color="#F7B500"/>
      <stop offset="1" stop-color="#B10A0A"/>
    </linearGradient>
    <linearGradient id="accent" x1="71" y1="80" x2="224" y2="220" gradientUnits="userSpaceOnUse">
      <stop stop-color="#FFF7F7"/>
      <stop offset="1" stop-color="#F0F3F6"/>
    </linearGradient>
    <filter id="shadow" x="20" y="20" width="260" height="260" filterUnits="userSpaceOnUse" color-interpolation-filters="sRGB">
      <feDropShadow dx="0" dy="14" stdDeviation="16" flood-color="#2A0B0B" flood-opacity="0.28"/>
    </filter>
  </defs>
  <g filter="url(#shadow)">
    <circle cx="150" cy="150" r="118" fill="url(#bg)"/>
    <circle cx="150" cy="150" r="104" stroke="rgba(255,255,255,0.55)" stroke-width="8"/>
    <path d="M96 189C124 145 138 121 150 95C162 121 176 145 204 189" stroke="url(#accent)" stroke-width="22" stroke-linecap="round" stroke-linejoin="round"/>
    <path d="M106 194C128 162 139 144 150 120C161 144 172 162 194 194" stroke="#2A0B0B" stroke-width="10" stroke-linecap="round" stroke-linejoin="round" opacity="0.9"/>
    <circle cx="112" cy="202" r="18" fill="#FFF7E8" stroke="#2A0B0B" stroke-width="8"/>
    <circle cx="188" cy="202" r="18" fill="#FFF7E8" stroke="#2A0B0B" stroke-width="8"/>
    <path d="M83 148C108 137 125 133 150 133C175 133 192 137 217 148" stroke="#FFF7E8" stroke-width="16" stroke-linecap="round"/>
    <path d="M125 74H176C187 74 196 83 196 94V110H105V94C105 83 114 74 125 74Z" fill="#2A0B0B"/>
    <path d="M122 96H178" stroke="#F7B500" stroke-width="8" stroke-linecap="round"/>
  </g>
</svg>
